<svg width="22" height="22" viewBox="0 0 22 22" fill="none" xmlns="http://www.w3.org/2000/svg">
<path d="M0.918931 18.9601C0.344637 19.5572 0.363091 20.5068 0.960149 21.0811C1.55721 21.6554 2.50677 21.6369 3.08107 21.0399L0.918931 18.9601ZM20.8134 1.97087C20.7973 1.1426 20.1128 0.484199 19.2846 0.500295L5.78711 0.762602C4.95884 0.778698 4.30044 1.46319 4.31654 2.29146C4.33264 3.11974 5.01713 3.77813 5.8454 3.76204L17.8431 3.52887L18.0763 15.5266C18.0924 16.3549 18.7769 17.0133 19.6052 16.9972C20.4334 16.9811 21.0918 16.2966 21.0757 15.4683L20.8134 1.97087ZM3.08107 21.0399L20.3948 3.03986L18.2326 0.960161L0.918931 18.9601L3.08107 21.0399Z" fill="#760B28"/>
</svg>
