
<svg width="55" height="170" viewBox="0 0 55 170" fill="none" xmlns="http://www.w3.org/2000/svg">
	<style>
	@keyframes blink {
    0% {
           fill: #760B28;
    }
    50% {
           fill: #fff;
    }
    100% {
           fill: #760B28;
    }
}
@-webkit-keyframes blink {
    0% {
           fill: #760B28;
         
    }
    50% {
           fill: #fff;
    }
    100% {
           fill: #760B28;
    }
}
#blink-text{ -moz-transition:all 1s ease-in-out;
    -webkit-transition:all 1s ease-in-out;
    -o-transition:all 1s ease-in-out;
    -ms-transition:all 1s ease-in-out;
    transition:all 1s ease-in-out;
    -moz-animation:blink normal 1.5s infinite ease-in-out;
    /* Firefox */
    -webkit-animation:blink normal 1.5s infinite ease-in-out;
    /* Webkit */
    -ms-animation:blink normal 1.5s infinite ease-in-out;
    /* IE */
    animation:blink normal 1.5s infinite ease-in-out;}
</style>

<path id="blink-color" d="M0 10C0 4.47715 4.47715 0 10 0H55V170H10C4.47715 170 0 165.523 0 160V10Z" fill="#760B28"/>
<path id="blink-text" d="M35 133.54L21 133.54L21 124.72L22.96 124.72L22.96 131.38L26.98 131.38L26.98 125.28L28.94 125.28L28.94 131.38L33.04 131.38L33.04 124.62L35 124.62L35 133.54ZM35 122.308L25.14 122.308L25.14 120.288L26.62 120.288L26.62 119.968C26.22 119.781 25.8467 119.448 25.5 118.968C25.1533 118.488 24.98 117.775 24.98 116.828C24.98 116.081 25.1467 115.421 25.48 114.848C25.8133 114.261 26.2867 113.801 26.9 113.468C27.5 113.135 28.2267 112.968 29.08 112.968L35 112.968L35 115.028L29.24 115.028C28.3867 115.028 27.76 115.241 27.36 115.668C26.9467 116.095 26.74 116.681 26.74 117.428C26.74 118.281 27.02 118.968 27.58 119.488C28.14 119.995 28.9533 120.248 30.02 120.248L35 120.248L35 122.308ZM35 110.003L25.14 110.003L25.14 107.983L26.3 107.983L26.3 107.663C25.8867 107.503 25.5867 107.25 25.4 106.903C25.2 106.543 25.1 106.103 25.1 105.583L25.1 104.403L26.96 104.403L26.96 105.663C26.96 106.33 27.1467 106.877 27.52 107.303C27.88 107.73 28.44 107.943 29.2 107.943L35 107.943L35 110.003ZM35.28 98.0006C35.28 98.9873 35.08 99.8673 34.68 100.641C34.2667 101.401 33.68 102.001 32.92 102.441C32.16 102.881 31.26 103.101 30.22 103.101L29.92 103.101C28.88 103.101 27.9867 102.881 27.24 102.441C26.48 102.001 25.8933 101.401 25.48 100.641C25.0667 99.8673 24.86 98.9873 24.86 98.0006C24.86 97.014 25.0667 96.134 25.48 95.3606C25.8933 94.5873 26.48 93.9806 27.24 93.5406C27.9867 93.1006 28.88 92.8806 29.92 92.8806L30.22 92.8806C31.26 92.8806 32.16 93.1006 32.92 93.5406C33.68 93.9806 34.2667 94.5873 34.68 95.3606C35.08 96.134 35.28 97.014 35.28 98.0006ZM33.44 98.0006C33.44 97.094 33.1533 96.3606 32.58 95.8006C31.9933 95.2273 31.1867 94.9406 30.16 94.9406L29.98 94.9406C28.9533 94.9406 28.1533 95.2206 27.58 95.7806C26.9933 96.3406 26.7 97.0806 26.7 98.0006C26.7 98.894 26.9933 99.6273 27.58 100.201C28.1533 100.761 28.9533 101.041 29.98 101.041L30.16 101.041C31.1867 101.041 31.9933 100.761 32.58 100.201C33.1533 99.6273 33.44 98.894 33.44 98.0006ZM35 90.3159L21 90.3159L21 88.2559L35 88.2559L35 90.3159ZM35 85.1987L21 85.1987L21 83.1387L35 83.1387L35 85.1987ZM35 75.0439L21 75.0439L21 70.8839L33.56 67.0839L33.56 66.7639L21 66.7639L21 64.6239L35 64.6239L35 68.7839L22.42 72.5839L22.42 72.9039L35 72.9039L35 75.0439ZM35.28 57.0241C35.28 58.0107 35.08 58.8907 34.68 59.6641C34.2667 60.4241 33.68 61.0241 32.92 61.4641C32.16 61.9041 31.26 62.1241 30.22 62.1241L29.92 62.1241C28.88 62.1241 27.9867 61.9041 27.24 61.4641C26.48 61.0241 25.8933 60.4241 25.48 59.6641C25.0667 58.8907 24.86 58.0107 24.86 57.0241C24.86 56.0374 25.0667 55.1574 25.48 54.3841C25.8933 53.6107 26.48 53.0041 27.24 52.5641C27.9867 52.1241 28.88 51.9041 29.92 51.9041L30.22 51.9041C31.26 51.9041 32.16 52.1241 32.92 52.5641C33.68 53.0041 34.2667 53.6107 34.68 54.3841C35.08 55.1574 35.28 56.0374 35.28 57.0241ZM33.44 57.0241C33.44 56.1174 33.1533 55.3841 32.58 54.8241C31.9933 54.2507 31.1867 53.9641 30.16 53.9641L29.98 53.9641C28.9533 53.9641 28.1533 54.2441 27.58 54.8041C26.9933 55.3641 26.7 56.1041 26.7 57.0241C26.7 57.9174 26.9933 58.6507 27.58 59.2241C28.1533 59.7841 28.9533 60.0641 29.98 60.0641L30.16 60.0641C31.1867 60.0641 31.9933 59.7841 32.58 59.2241C33.1533 58.6507 33.44 57.9174 33.44 57.0241ZM35 48.3766L25.14 50.0566L25.14 47.9966L33.62 46.7566L33.62 46.4366L25.14 44.7166L25.14 41.3766L33.62 39.6766L33.62 39.3566L25.14 38.1166L25.14 36.0566L35 37.7366L35 41.1966L26.54 42.8966L26.54 43.2166L35 44.9166L35 48.3766Z" fill="white"/>
</svg>
